<svg width="48" height="48" viewBox="0 0 48 48" fill="none" xmlns="http://www.w3.org/2000/svg">
<g id="Icons / Actions/shopping cart">
<path id="shopping cart" fill-rule="evenodd" clip-rule="evenodd" d="M39.9759 5.40996C39.3599 5.40996 38.8259 5.83196 38.6839 6.43196L37.4739 11.496H4.06188C3.65988 11.496 3.27988 11.678 3.02588 11.99C2.77588 12.302 2.67788 12.712 2.76188 13.106L6.41388 30.148C6.54388 30.762 7.08788 31.198 7.71388 31.198H32.7659L31.0739 38.278H8.32388V40.938H32.1219C32.7379 40.938 33.2719 40.516 33.4139 39.916L41.0239 8.06796H46.0619V5.40796H39.9759V5.40996ZM8.78988 28.538L5.70788 14.156H36.8379L33.4019 28.538H8.78988ZM28.1059 44.478C28.1059 45.362 28.7439 46 29.6279 46C30.5139 46 31.1499 45.362 31.1499 44.478C31.1499 43.594 30.5119 42.956 29.6279 42.956C28.7439 42.956 28.1059 43.594 28.1059 44.478ZM11.3679 46C10.4839 46 9.84588 45.362 9.84588 44.478C9.84588 43.594 10.4839 42.956 11.3679 42.956C12.2519 42.956 12.8899 43.594 12.8899 44.478C12.8899 45.362 12.2519 46 11.3679 46ZM16.0439 17.39H13.3839V25.304H16.0439V17.39ZM20.0799 17.39H22.7399V25.304H20.0799V17.39ZM29.4379 17.39H26.7779V25.304H29.4379V17.39Z" fill="#001E50"/>
</g>
</svg>
